<svg style="display: none;" aria-hidden="true" xmlns="http://www.w3.org/2000/svg" xmlns:xlink="http://www.w3.org/1999/xlink"><symbol fill="currentColor" viewBox="0 0 20 20" id="svg-arr-next" xmlns="http://www.w3.org/2000/svg">
  <path d="M5.958 17.583a1.012 1.012 0 0 1-.312-.74c0-.284.104-.53.312-.739L12.062 10 5.938 3.875a.99.99 0 0 1-.291-.73c0-.29.104-.54.312-.75.209-.207.455-.312.74-.312s.531.105.74.313l7 7.02a.736.736 0 0 1 .177.272.93.93 0 0 1 .052.312.93.93 0 0 1-.052.313.736.736 0 0 1-.178.27l-7.02 7.021a.976.976 0 0 1-.719.292 1.01 1.01 0 0 1-.74-.313Z"/>
</symbol><symbol fill="currentColor" viewBox="0 0 20 20" id="svg-arr-prev" xmlns="http://www.w3.org/2000/svg">
  <path d="M14.042 17.583c.208-.208.312-.455.312-.74 0-.284-.104-.53-.312-.739L7.938 10l6.125-6.125a.99.99 0 0 0 .291-.73c0-.29-.104-.54-.312-.75a1.011 1.011 0 0 0-.74-.312c-.285 0-.531.105-.74.313l-7 7.02a.736.736 0 0 0-.177.272.93.93 0 0 0-.052.312c0 .111.018.215.052.313a.736.736 0 0 0 .178.27l7.02 7.021a.976.976 0 0 0 .719.292c.285 0 .531-.104.74-.313Z"/>
</symbol><symbol fill="currentColor" viewBox="0 0 16 16" id="svg-close" xmlns="http://www.w3.org/2000/svg">
  <path d="M15.59 2.39A1.4 1.4 0 1 0 13.61.41L8 6.02 2.39.41A1.4 1.4 0 1 0 .41 2.39L6.02 8 .41 13.61a1.4 1.4 0 0 0 1.98 1.98L8 9.98l5.61 5.61a1.4 1.4 0 1 0 1.98-1.98L9.98 8l5.61-5.61Z"/>
</symbol><symbol fill="none" viewBox="0 0 32 32" id="svg-eye" xmlns="http://www.w3.org/2000/svg">
  <path fill="#B0B7B7" d="M16 6C9.333 6 3.64 10.147 1.333 16c2.307 5.853 8 10 14.667 10s12.36-4.147 14.667-10C28.36 10.147 22.667 6 16 6Zm0 16.667A6.67 6.67 0 0 1 9.333 16 6.67 6.67 0 0 1 16 9.333 6.67 6.67 0 0 1 22.667 16 6.67 6.67 0 0 1 16 22.667ZM16 12c-2.213 0-4 1.787-4 4s1.787 4 4 4 4-1.787 4-4-1.787-4-4-4Z"/>
</symbol><symbol fill="none" viewBox="0 0 31 35" id="svg-q" xmlns="http://www.w3.org/2000/svg">
  <path fill="#fff" d="M29.781 8.092c-2.152-1.138-2.998-2.087-3.455-5.146a.527.527 0 0 0-.43-.438.518.518 0 0 0-.55.272c-1.426 2.69-2.687 3.279-5.15 3.648a.521.521 0 0 0-.165.98c2.202 1.164 3.197 2.137 3.647 5.146.034.223.207.4.43.438.031.004.058.008.089.008a.522.522 0 0 0 .465-.28c1.426-2.699 2.49-3.279 4.954-3.648a.521.521 0 0 0 .165-.98Zm-9.567 16.84h2.042v3.818h-2.131c-1.776 0-2.516-.503-3.226-1.391-1.569 1.006-3.522 1.569-5.682 1.569-6.097 0-10.27-4.499-10.27-10.537 0-6.037 4.173-10.535 10.27-10.535 6.096 0 10.27 4.498 10.27 10.536 0 2.456-.681 4.676-1.924 6.422.177.059.384.118.65.118Zm-14.739-6.54c0 3.906 2.25 6.777 5.742 6.777 1.213 0 2.279-.355 3.166-.977l-.295-.355c-.444-.592-.83-.917-1.48-.917h-1.924v-3.76h2.25c1.745 0 2.337.621 3.048 1.51l.473.591c.326-.858.474-1.835.474-2.87 0-3.907-2.25-6.778-5.712-6.778-3.493 0-5.742 2.87-5.742 6.777Z"/>
</symbol><symbol viewBox="0 0 645 301" fill="none" id="svg-results-bg-compact" xmlns="http://www.w3.org/2000/svg">
<path opacity="0.1" d="M900.332 -233.602C876.458 -32.3425 688.968 188.987 273.785 -71.9743C-141.398 -332.936 -394.053 -796.592 116.874 -720.838" stroke="var(--color-bg-button)" stroke-width="20" stroke-linecap="round"/>
<g opacity="0.2">
<path d="M472.765 131.098C468.819 129.108 467.269 127.446 466.431 122.092C466.367 121.702 466.05 121.393 465.642 121.326C465.226 121.258 464.824 121.453 464.634 121.803C462.02 126.511 459.709 127.54 455.192 128.186C454.783 128.247 454.459 128.549 454.389 128.939C454.318 129.33 454.523 129.72 454.889 129.901C458.927 131.939 460.752 133.641 461.576 138.907C461.639 139.297 461.956 139.607 462.365 139.674C462.421 139.681 462.471 139.688 462.527 139.688C462.88 139.688 463.211 139.506 463.38 139.197C465.994 134.475 467.946 133.459 472.462 132.814C472.871 132.753 473.195 132.45 473.266 132.06C473.336 131.67 473.132 131.28 472.765 131.098Z" fill="var(--color-bg-button)"/>
</g>
<g opacity="0.2">
<path d="M482.187 119.228C480.753 118.47 480.189 117.837 479.884 115.797C479.861 115.649 479.746 115.531 479.597 115.505C479.446 115.479 479.3 115.554 479.231 115.687C478.28 117.481 477.44 117.873 475.797 118.119C475.649 118.142 475.531 118.257 475.505 118.406C475.479 118.554 475.554 118.703 475.687 118.772C477.155 119.548 477.819 120.197 478.119 122.203C478.142 122.351 478.257 122.469 478.406 122.495C478.426 122.497 478.444 122.5 478.464 122.5C478.593 122.5 478.713 122.431 478.774 122.313C479.725 120.514 480.435 120.127 482.077 119.881C482.226 119.858 482.344 119.743 482.369 119.594C482.395 119.446 482.321 119.297 482.187 119.228Z" fill="var(--color-bg-button)"/>
</g>
<g opacity="0.2">
<path d="M283.336 23.1555C287.461 20.975 289.082 19.1555 289.959 13.2917C290.025 12.8644 290.356 12.5256 290.784 12.4519C291.218 12.3783 291.638 12.5919 291.837 12.9749C294.57 18.1315 296.986 19.2586 301.708 19.9658C302.136 20.0321 302.474 20.3636 302.548 20.7908C302.622 21.2181 302.408 21.6453 302.025 21.8442C297.804 24.0763 295.896 25.94 295.034 31.708C294.968 32.1352 294.636 32.4741 294.209 32.5478C294.15 32.5551 294.099 32.5625 294.04 32.5625C293.671 32.5625 293.325 32.3636 293.148 32.0247C290.415 26.8535 288.375 25.7411 283.653 25.0339C283.226 24.9676 282.887 24.6361 282.813 24.2089C282.74 23.7816 282.953 23.3544 283.336 23.1555Z" fill="var(--color-bg-button)"/>
<path d="M272.914 10.7565C274.528 9.90325 275.163 9.19126 275.506 6.89676C275.532 6.72957 275.661 6.59697 275.828 6.56814C275.998 6.53932 276.163 6.62291 276.241 6.77281C277.31 8.79059 278.256 9.23162 280.103 9.50834C280.27 9.53429 280.403 9.664 280.432 9.83119C280.461 9.99838 280.377 10.1656 280.227 10.2434C278.575 11.1168 277.829 11.8461 277.492 14.1031C277.466 14.2703 277.336 14.4029 277.169 14.4317C277.146 14.4346 277.126 14.4375 277.103 14.4375C276.958 14.4375 276.823 14.3597 276.754 14.2271C275.684 12.2035 274.886 11.7683 273.038 11.4915C272.871 11.4656 272.738 11.3359 272.71 11.1687C272.681 11.0015 272.764 10.8343 272.914 10.7565Z" fill="var(--color-bg-button)"/>
</g>
</symbol><symbol fill="none" viewBox="0 0 32 32" id="svg-succes" xmlns="http://www.w3.org/2000/svg">
  <path fill="#B0B7B7" stroke="#fff" stroke-width="2" d="M1 16C1 7.752 7.752 1 16 1c8.248 0 15 6.752 15 15 0 8.248-6.752 15-15 15-8.248 0-15-6.752-15-15Z"/>
  <path fill="#F6F6F6" d="m13.334 18.133 7.867-7.866c.244-.245.556-.367.933-.367.378 0 .69.122.934.367.244.244.366.555.366.933s-.122.689-.366.933l-8.8 8.8a1.28 1.28 0 0 1-.934.4 1.28 1.28 0 0 1-.933-.4l-3.467-3.466c-.244-.245-.366-.556-.366-.934 0-.377.122-.689.366-.933.245-.244.556-.367.934-.367.377 0 .689.123.933.367l2.533 2.533Z"/>
</symbol><symbol fill="none" viewBox="0 0 32 32" id="svg-wrong" xmlns="http://www.w3.org/2000/svg">
  <path fill="#B0B7B7" stroke="#fff" stroke-width="2" d="M1 16C1 7.752 7.752 1 16 1c8.248 0 15 6.752 15 15 0 8.248-6.752 15-15 15-8.248 0-15-6.752-15-15Z"/>
  <path fill="#fff" d="M22.272 11.61a1.335 1.335 0 0 0-1.886-1.886L16 14.114l-4.39-4.386a1.335 1.335 0 0 0-1.886 1.887L14.114 16l-4.386 4.39a1.335 1.335 0 0 0 1.887 1.886L16 17.886l4.39 4.386a1.335 1.335 0 0 0 1.886-1.886L17.886 16l4.386-4.39Z"/>
</symbol></svg>