<svg width="26" height="26" viewBox="0 0 26 26" fill="none" xmlns="http://www.w3.org/2000/svg">
<path d="M0.461914 13.5032C0.461914 13.5032 5.14552 12.5071 7.44351 10.1921C10.7152 6.88092 9.01121 0.489207 11.4358 0.101831C13.6169 -0.248652 13.8506 3.36686 13.8506 5.67267C13.8506 7.97848 13.1787 10.2474 13.1787 10.2474C13.1787 10.2474 17.0639 8.49498 18.359 8.04304C19.5274 7.63722 20.9198 7.76635 21.5138 8.77168C22.4778 10.3857 21.1438 11.4741 20.024 12.3134L20.1701 12.6454C20.7446 12.5993 23.062 11.9814 23.7144 13.8537C24.5226 16.1687 21.6014 17.2202 21.6014 17.2202L21.6988 17.5707C22.4389 17.4508 24.581 17.008 25.029 19.0648C25.8956 23.0124 14.9899 26.8308 2.0004 25.7332L0.461914 13.5032Z" fill="#B0B7B7"/>
</svg>
