<svg xmlns="http://www.w3.org/2000/svg" width="24" height="24" fill="none" viewBox="0 0 24 24">
  <path fill="#99DC35" stroke="#fff" stroke-width="2" d="M1 12C1 5.952 5.952 1 12 1s11 4.952 11 11-4.952 11-11 11S1 18.048 1 12Z"/>
  <path fill="#F6F6F6" d="m10 13.6 5.9-5.9a.948.948 0 0 1 .7-.275c.284 0 .517.092.7.275a.948.948 0 0 1 .276.7.948.948 0 0 1-.275.7l-6.6 6.6c-.2.2-.434.3-.7.3a.96.96 0 0 1-.7-.3l-2.6-2.6a.948.948 0 0 1-.275-.7c0-.283.091-.517.275-.7a.948.948 0 0 1 .7-.275c.283 0 .516.092.7.275l1.9 1.9Z"/>
</svg>
