<svg xmlns="http://www.w3.org/2000/svg" width="440" height="127" fill="none" viewBox="0 0 440 127">
  <path fill="#F37979" d="m295.044 75.8 25.444-15.892 3.178 5.089-25.444 15.893z"/>
  <path fill="#EC76FF" d="m130.566 65.036-28.619-8.996-1.8 5.724 28.62 8.996z"/>
  <path fill="#FFE926" d="m325.756 115 14.317 8.78-1.756 2.864-14.317-8.78z"/>
  <path fill="#96E595" d="m110.315 112-14.317 8.78 1.756 2.863 14.317-8.78z"/>
  <path fill="#2ECB2B" d="M437.129 21 425 33.128l2.426 2.425 12.128-12.128z"/>
  <path fill="#FAA75C" d="M5.127 17.342 3.414 34.408 0 34.066l1.713-17.067z"/>
  <path fill="#47FFD3" d="m292.484 16.669-12.128 12.128 2.425 2.425 12.128-12.128z"/>
  <path fill="#9747FF" d="M213.001 84v17h-3V84z"/>
  <path fill="#FACE5C" d="m129.627 13.669 12.128 12.128-2.425 2.426-12.128-12.129z"/>
  <path fill="#F37979" d="m239 .518 2.596 16.954 3.39-.519L242.39 0z"/>
</svg>
