<svg width="141" height="140" viewBox="0 0 141 140" fill="none" xmlns="http://www.w3.org/2000/svg">
<rect x="0.5" width="140" height="140" rx="12.8333" fill="#7599F7"/>
<rect x="20.333" y="55.9995" width="100.333" height="28" rx="2.33333" fill="white"/>
<rect opacity="0.4" x="50.667" y="89.8335" width="61.8333" height="12.8333" rx="2.33333" fill="white"/>
<rect opacity="0.4" x="27.333" y="37.3335" width="61.8333" height="12.8333" rx="2.33333" fill="white"/>
<path d="M101.369 69.4167C101.369 66.1828 104.017 63.5347 107.251 63.5347C110.484 63.5347 113.133 66.1828 113.133 69.4167C113.133 72.6505 110.484 75.2986 107.251 75.2986C104.017 75.2986 101.369 72.6505 101.369 69.4167Z" fill="#99DC35" stroke="white" stroke-width="1.06944"/>
<path d="M106.182 70.2722L109.337 67.1174C109.435 67.0194 109.559 66.9703 109.711 66.9703C109.862 66.9703 109.987 67.0194 110.085 67.1174C110.183 67.2154 110.232 67.3402 110.232 67.4917C110.232 67.6432 110.183 67.768 110.085 67.866L106.556 71.3952C106.449 71.5021 106.324 71.5556 106.182 71.5556C106.039 71.5556 105.914 71.5021 105.807 71.3952L104.417 70.0049C104.319 69.9069 104.27 69.7821 104.27 69.6306C104.27 69.4791 104.319 69.3543 104.417 69.2563C104.515 69.1582 104.64 69.1092 104.791 69.1092C104.943 69.1092 105.068 69.1582 105.166 69.2563L106.182 70.2722Z" fill="#F6F6F6"/>
</svg>
