<svg width="32" height="28" viewBox="0 0 32 28" fill="none" xmlns="http://www.w3.org/2000/svg">
<path d="M11.3362 17.1555C15.4615 14.975 17.0821 13.1555 17.9587 7.29171C18.025 6.86445 18.3565 6.52559 18.7838 6.45193C19.2184 6.37826 19.6383 6.59189 19.8372 6.97495C22.5701 12.1315 24.9864 13.2586 29.7083 13.9658C30.1356 14.0321 30.4744 14.3636 30.5481 14.7908C30.6217 15.2181 30.4081 15.6453 30.0251 15.8442C25.804 18.0763 23.8961 19.94 23.0342 25.708C22.9679 26.1352 22.6364 26.4741 22.2092 26.5478C22.1503 26.5551 22.0987 26.5625 22.0398 26.5625C21.6714 26.5625 21.3252 26.3636 21.1484 26.0247C18.4154 20.8535 16.3749 19.7411 11.653 19.0339C11.2257 18.9676 10.8869 18.6361 10.8132 18.2089C10.7395 17.7816 10.9532 17.3544 11.3362 17.1555Z" fill="white"/>
<path d="M0.91417 4.75649C2.5284 3.90325 3.16256 3.19126 3.50558 0.896755C3.53152 0.729567 3.66124 0.59697 3.82843 0.568145C3.9985 0.539319 4.1628 0.622913 4.24063 0.772805C5.31006 2.79059 6.25553 3.23162 8.10324 3.50834C8.27043 3.53429 8.40303 3.664 8.43186 3.83119C8.46068 3.99838 8.37709 4.16556 8.22719 4.24339C6.57549 5.11681 5.82891 5.84609 5.49166 8.10312C5.46571 8.27031 5.336 8.40291 5.16881 8.43173C5.14575 8.43462 5.12557 8.4375 5.10251 8.4375C4.95838 8.4375 4.82291 8.35967 4.75372 8.22707C3.6843 6.20353 2.88583 5.76826 1.03812 5.49154C0.870932 5.46559 0.738335 5.33588 0.709509 5.16869C0.680684 5.0015 0.764277 4.83432 0.91417 4.75649Z" fill="white"/>
</svg>
