<svg xmlns="http://www.w3.org/2000/svg" width="32" height="32" fill="none" viewBox="0 0 32 32">
  <path fill="#7599F7" d="M28.75 16.912c-5.74-3.034-7.995-5.565-9.214-13.724a1.404 1.404 0 0 0-1.148-1.168 1.382 1.382 0 0 0-1.466.728C13.12 9.922 9.758 11.49 3.188 12.474a1.404 1.404 0 0 0-1.168 1.148 1.39 1.39 0 0 0 .728 1.466c5.872 3.105 8.527 5.698 9.726 13.723a1.404 1.404 0 0 0 1.148 1.169c.082.01.154.02.236.02.512 0 .994-.277 1.24-.748 3.802-7.195 6.641-8.743 13.21-9.726a1.404 1.404 0 0 0 1.17-1.148 1.39 1.39 0 0 0-.728-1.466Z" opacity=".4"/>
</svg>
