<svg width="902" height="1157" viewBox="0 0 902 1157" fill="none" xmlns="http://www.w3.org/2000/svg">
<g clip-path="url(#clip0_0_441)">
<rect width="902" height="1157" rx="16" fill="#F5F6F8"/>
<path d="M457.589 -218.28C29.7979 -186.737 -324.482 112.328 13.9368 264.68C352.356 417.033 1023.5 363.5 948.5 749C878 1016.5 398.2 1167.9 -267 1029.5" stroke="#7599F7" stroke-opacity="0.08" stroke-width="200" stroke-linecap="round"/>
<g opacity="0.6">
<path opacity="0.4" d="M855.375 518.456C852.505 516.939 851.378 515.673 850.768 511.594C850.722 511.297 850.491 511.061 850.194 511.01C849.892 510.959 849.599 511.107 849.461 511.374C847.56 514.961 845.879 515.745 842.594 516.237C842.297 516.283 842.061 516.514 842.01 516.811C841.959 517.108 842.107 517.405 842.374 517.544C845.31 519.097 846.637 520.393 847.237 524.406C847.283 524.703 847.514 524.939 847.811 524.99C847.852 524.995 847.888 525 847.929 525C848.185 525 848.426 524.862 848.549 524.626C850.45 521.028 851.87 520.255 855.154 519.763C855.452 519.717 855.687 519.486 855.739 519.189C855.79 518.892 855.641 518.594 855.375 518.456Z" fill="#7599F7"/>
</g>
<g opacity="0.8">
<path opacity="0.3" d="M60.9685 348.57C57.3813 346.674 55.9721 345.092 55.2098 339.993C55.1522 339.621 54.8639 339.327 54.4924 339.263C54.1145 339.198 53.7493 339.384 53.5764 339.717C51.1999 344.201 49.0988 345.181 44.9928 345.796C44.6213 345.854 44.3266 346.142 44.2625 346.514C44.1985 346.885 44.3843 347.257 44.7173 347.43C48.3878 349.371 50.0469 350.991 50.7963 356.007C50.854 356.378 51.1422 356.673 51.5138 356.737C51.565 356.744 51.6098 356.75 51.6611 356.75C51.9814 356.75 52.2824 356.577 52.4362 356.282C54.8127 351.786 56.587 350.818 60.6931 350.203C61.0646 350.146 61.3593 349.858 61.4233 349.486C61.4874 349.114 61.3016 348.743 60.9685 348.57Z" fill="#7599F7"/>
</g>
<g opacity="0.4">
<path d="M356.969 943.57C353.381 941.674 351.972 940.092 351.21 934.993C351.152 934.621 350.864 934.327 350.492 934.263C350.114 934.198 349.749 934.384 349.576 934.717C347.2 939.201 345.099 940.181 340.993 940.796C340.621 940.854 340.327 941.142 340.263 941.514C340.198 941.885 340.384 942.257 340.717 942.43C344.388 944.371 346.047 945.991 346.796 951.007C346.854 951.378 347.142 951.673 347.514 951.737C347.565 951.744 347.61 951.75 347.661 951.75C347.981 951.75 348.282 951.577 348.436 951.282C350.813 946.786 352.587 945.818 356.693 945.203C357.065 945.146 357.359 944.858 357.423 944.486C357.487 944.114 357.302 943.743 356.969 943.57Z" fill="#7599F7"/>
</g>
</g>
<defs>
<clipPath id="clip0_0_441">
<rect width="902" height="1157" rx="16" fill="white"/>
</clipPath>
</defs>
</svg>
