<svg width="30" height="26" viewBox="0 0 30 26" fill="none" xmlns="http://www.w3.org/2000/svg">
<path d="M19.7654 16.0985C15.8195 14.1076 14.2693 12.4463 13.4308 7.09243C13.3674 6.70232 13.0503 6.39293 12.6416 6.32567C12.2259 6.25841 11.8243 6.45346 11.634 6.80321C9.01986 11.5114 6.7087 12.5404 2.19207 13.1861C1.78339 13.2467 1.45926 13.5493 1.3888 13.9394C1.31834 14.3295 1.52268 14.7197 1.88908 14.9013C5.92657 16.9392 7.75154 18.6409 8.57595 23.9073C8.63937 24.2974 8.95645 24.6068 9.36513 24.674C9.4215 24.6808 9.47082 24.6875 9.52719 24.6875C9.8795 24.6875 10.2107 24.5059 10.3798 24.1965C12.9939 19.4749 14.9457 18.4593 19.4624 17.8136C19.8711 17.7531 20.1952 17.4504 20.2656 17.0603C20.3361 16.6702 20.1318 16.2801 19.7654 16.0985Z" fill="white"/>
<path d="M29.1874 4.22799C27.7525 3.46956 27.1888 2.83668 26.8839 0.797116C26.8609 0.648504 26.7456 0.53064 26.597 0.505017C26.4458 0.479395 26.2997 0.5537 26.2306 0.686938C25.28 2.48052 24.4395 2.87255 22.7971 3.11853C22.6485 3.14159 22.5306 3.25689 22.505 3.4055C22.4794 3.55411 22.5537 3.70272 22.6869 3.77191C24.1551 4.54827 24.8187 5.19652 25.1185 7.20278C25.1416 7.35139 25.2569 7.46925 25.4055 7.49488C25.426 7.49744 25.4439 7.5 25.4644 7.5C25.5925 7.5 25.713 7.43082 25.7745 7.31295C26.7251 5.51425 27.4348 5.12734 29.0772 4.88137C29.2258 4.85831 29.3437 4.743 29.3693 4.59439C29.3949 4.44578 29.3206 4.29717 29.1874 4.22799Z" fill="white"/>
</svg>
